<svg id="Bk-5Vn6pf" data-name="Layer 1" xmlns="http://www.w3.org/2000/svg" viewBox="0 0 600 600"><style>@-webkit-keyframes SJVWW5426pz_HJoIW66af_Animation{0%{-webkit-transform: translate(0px, 0px);transform: translate(0px, 0px);}50%{-webkit-transform: translate(0px, -100px);transform: translate(0px, -100px);}100%{-webkit-transform: translate(0px, 0px);transform: translate(0px, 0px);}}@keyframes SJVWW5426pz_HJoIW66af_Animation{0%{-webkit-transform: translate(0px, 0px);transform: translate(0px, 0px);}50%{-webkit-transform: translate(0px, -100px);transform: translate(0px, -100px);}100%{-webkit-transform: translate(0px, 0px);transform: translate(0px, 0px);}}#Bk-5Vn6pf *{-webkit-animation-duration: 0.8s;animation-duration: 0.8s;-webkit-animation-iteration-count: infinite;animation-iteration-count: infinite;-webkit-animation-timing-function: cubic-bezier(0, 0, 1, 1);animation-timing-function: cubic-bezier(0, 0, 1, 1);}#ryeW5V3p6M{fill: #97de8c;}#HJW-qNh6Tz{fill: #97de8c;}#SkGb94hTaG{fill: #97de8c;}#r1Q-9VhpTz{fill: #97de8c;}#S14WqN2ppM{fill: #97de8c;}#BkSb9E3TTf{fill: #97de8c;}#HyLW543paG{fill: #97de8c;}#SJvbqN3Taf{fill: #97de8c;}#rk_Wq4nTaG{fill: #97de8c;}#rkFZ94nT6z{fill: #97de8c;}#Skc-cN2paf{fill: #97de8c;}#B1sZ5N3a6f{fill: #97de8c;}#Byh-qVhpTf{fill: #97de8c;}#SJTbc4hpaf{fill: #97de8c;}#BkCbcNhTpz{fill: #97de8c;}#H11x-9VhpTf{fill: #97de8c;}#BJlgbq4npaG{fill: #97de8c;}#rJZxWqVh6aM{fill: #97de8c;}#SJzl-5N2ppf{fill: #97de8c;}#SJ7lb5NnpaM{fill: #97de8c;}#S14xW9E2p6M{fill: #97de8c;}#rJrxbcVhpTf{fill: #97de8c;}#HyLxZc42p6M{fill: #97de8c;}#ByvxZcEn6aM{fill: #97de8c;}#H1de-qV36aM{fill: #97de8c;}#BkYeW94266f{fill: #97de8c;}#ry9g-cN36Tf{fill: #97de8c;}#BJslWc4n66z{fill: #97de8c;}#H13g-9E2apG{fill: #97de8c;}#B16xb5N3paz{fill: #97de8c;}#B1Cl-5VnapG{fill: #97de8c;}#ByyZbcVhTpG{fill: #97de8c;}#Syebb942aaz{fill: #97de8c;}#B1-Zb9Nna6z{fill: #97de8c;}#SyMZWc42TaG{fill: #2e6aff;}#HkQ-bqN2aTf{fill: #2e6aff;}#SJVWW5426pz{fill: #de5260;}#SJVWW5426pz_HJoIW66af{-webkit-animation-name: SJVWW5426pz_HJoIW66af_Animation;animation-name: SJVWW5426pz_HJoIW66af_Animation;-webkit-animation-timing-function: cubic-bezier(0.42, 0, 0.58, 1);animation-timing-function: cubic-bezier(0.42, 0, 0.58, 1);-webkit-transform-origin: 50% 50%;transform-origin: 50% 50%;transform-box: fill-box;-webkit-transform: translate(0px, 0px);transform: translate(0px, 0px);}</style><defs/><title>map</title><path d="M.58,457H116V360H0v83.65a155.76,155.76,0,0,0,2.1,25.44Q1.11,463.12.58,457Z" id="ryeW5V3p6M"/><polygon points="414.57 457 317.57 360 140 360 140 457 414.57 457" id="HJW-qNh6Tz"/><path d="M116,594.68V481H4.55q-1.44-5.81-2.43-11.78c10.25,61.59,56.81,111.3,116.76,126.19Z" id="SkGb94hTaG"/><path d="M130.27,597.8l-2.37-.42Z" id="r1Q-9VhpTz"/><path d="M140,599.14c-1.72-.18-3.43-.4-5.13-.63C136.54,598.74,138.25,599,140,599.14Z" id="S14WqN2ppM"/><polygon points="118.57 161 0 161 0 241.59 199.16 241.59 118.57 161" id="BkSb9E3TTf"/><path d="M127.59,597.32q-4.32-.81-8.56-1.86Q123.26,596.5,127.59,597.32Z" id="HyLW543paG"/><path d="M133.54,598.32l-2.18-.34Z" id="SJvbqN3Taf"/><path d="M1.62,134c.11-.75.22-1.5.34-2.24C1.84,132.48,1.73,133.23,1.62,134Z" id="rk_Wq4nTaG"/><path d="M0,152.52c0-.45,0-.9,0-1.35C.08,151.62.06,152.07,0,152.52Z" id="rkFZ94nT6z"/><path d="M1.14,137.57q.13-1,.27-2.08Q1.27,136.53,1.14,137.57Z" id="Skc-cN2paf"/><path d="M284,241.59H460V.86A156.31,156.31,0,0,0,443.65,0H279.47L160.95,118.52Z" id="B1sZ5N3a6f"/><path d="M10.19,101H143.43l.55.55L245.53,0H156.35C80.31,0,16.51,55,2.75,127.21A154.94,154.94,0,0,1,10.19,101Z" id="Byh-qVhpTf"/><path d="M.74,141.24q.09-1,.2-1.95C.87,139.94.8,140.59.74,141.24Z" id="SJTbc4hpaf"/><path d="M.19,148.72c0-.55.06-1.1.1-1.65C.25,147.62.22,148.17.19,148.72Z" id="BkCbcNhTpz"/><path d="M.42,145c0-.61.1-1.21.15-1.82C.52,143.74.46,144.35.42,145Z" id="H11x-9VhpTf"/><path d="M2.17,130.49c.14-.82.28-1.65.43-2.46C2.45,128.84,2.3,129.67,2.17,130.49Z" id="BJlgbq4npaG"/><path d="M499,456.57V457H599.42q-.52,6.11-1.52,12.09a155.76,155.76,0,0,0,2.1-25.44V360H402.43Z" id="rJZxWqVh6aM"/><path d="M595.45,481H499V589.81c51.18-19.53,89.68-65.27,98.88-120.59Q596.89,475.19,595.45,481Z" id="SJzl-5N2ppf"/><path d="M481.13,4.58l2.87.74V241.59H600V156.35C600,83.27,549.17,21.48,481.13,4.58Z" id="SJ7lb5NnpaM"/><path d="M499,589.81a155,155,0,0,1-26.2,7.43A154.65,154.65,0,0,0,499,589.81Z" id="S14xW9E2p6M"/><path d="M465.16,1.5c-1.7-.24-3.41-.45-5.13-.63C461.75,1,463.46,1.26,465.16,1.5Z" id="rJrxbcVhpTf"/><path d="M472.1,2.62l-2.37-.42Z" id="HyLxZc42p6M"/><path d="M481,4.55q-4.24-1-8.56-1.86Q476.74,3.5,481,4.55Z" id="ByvxZcEn6aM"/><path d="M468.64,2l-2.18-.34Z" id="H1de-qV36aM"/><path d="M452.93,599.71l-1.64.1Z" id="BkYeW94266f"/><path d="M448.81,599.9l-1.33,0Z" id="ry9g-cN36Tf"/><path d="M456.86,599.43l-1.82.15Z" id="BJslWc4n66z"/><path d="M140,481V599.14a156.31,156.31,0,0,0,16.35.86H287V481Z" id="H13g-9E2apG"/><polygon points="438.57 481 311 481 311 600 439 600 439 481.43 438.57 481" id="B16xb5N3paz"/><path d="M460.71,599.06l-1.95.2Z" id="B1Cl-5VnapG"/><path d="M472,597.4l-2.46.43Z" id="ByyZbcVhTpG"/><path d="M468.26,598l-2.24.34Z" id="Syebb942aaz"/><path d="M464.51,598.59l-2.08.27Z" id="B1-Zb9Nna6z"/><polygon points="222.57 265 0 265 0 335 292.57 335 222.57 265" id="SyMZWc42TaG"/><polygon points="307.43 265 377.43 335 600 335 600 265 307.43 265" id="HkQ-bqN2aTf"/><g id="SJVWW5426pz_HJoIW66af" data-animator-group="true" data-animator-type="0"><path d="M379.29,156.29A79.29,79.29,0,1,0,232.54,198h0L300,300.42,367.47,198h0A78.9,78.9,0,0,0,379.29,156.29ZM300,198.66a38.76,38.76,0,1,1,38.76-38.76A38.76,38.76,0,0,1,300,198.66Z" id="SJVWW5426pz"/></g><script>(function(){var a=document.querySelector('#Bk-5Vn6pf'),b=a.querySelectorAll('style'),c=function(d){b.forEach(function(f){var g=f.textContent;g&amp;&amp;(f.textContent=g.replace(/transform-box:[^;\r\n]*/gi,'transform-box: '+d))})};c('initial'),window.requestAnimationFrame(function(){return c('fill-box')})})();</script></svg>